<svg width="26" height="26" viewBox="0 0 26 26" fill="none" xmlns="http://www.w3.org/2000/svg">
<g id="cib:youtube" clip-path="url(#clip0_8834_597)">
<path id="Vector" d="M24.8945 6.57247C24.7468 6.04462 24.4653 5.56384 24.0773 5.17668C23.6893 4.78951 23.208 4.5091 22.6798 4.36257C20.6971 3.83254 12.7269 3.83254 12.7269 3.83254C12.7269 3.83254 4.77171 3.81983 2.76841 4.36257C2.24109 4.50974 1.76064 4.79045 1.37352 5.17758C0.986394 5.5647 0.705681 6.04515 0.558513 6.57247C0.182011 8.60217 -0.00342187 10.6627 0.0046469 12.727C0.000973188 14.7814 0.186377 16.8317 0.558513 18.8521C0.706157 19.3797 0.986953 19.8605 1.37394 20.2483C1.76093 20.6361 2.24112 20.918 2.76841 21.0668C4.75105 21.5968 12.7269 21.5968 12.7269 21.5968C12.7269 21.5968 20.6773 21.5968 22.6798 21.0668C23.2079 20.9186 23.6891 20.6371 24.0769 20.2492C24.4648 19.8614 24.7463 19.3802 24.8945 18.8521C25.2592 16.8329 25.4372 14.7795 25.4245 12.727C25.4372 10.6609 25.2632 8.60438 24.8945 6.57247ZM10.1808 16.5309V8.90634L16.8153 12.727L10.1808 16.5309Z" fill="white"/>
</g>
<defs>
<clipPath id="clip0_8834_597">
<rect width="25.4286" height="25.4286" fill="white"/>
</clipPath>
</defs>
</svg>
