<svg width="21" height="22" viewBox="0 0 21 22" fill="none" xmlns="http://www.w3.org/2000/svg">
<path id="Vector" d="M10.4641 7.60483C8.59642 7.60483 7.07225 9.19254 7.07225 11.1381C7.07225 13.0836 8.59642 14.6713 10.4641 14.6713C12.3318 14.6713 13.856 13.0836 13.856 11.1381C13.856 9.19254 12.3318 7.60483 10.4641 7.60483ZM20.6371 11.1381C20.6371 9.67495 20.6499 8.22507 20.571 6.76459C20.4921 5.06821 20.1206 3.56267 18.9298 2.32219C17.7364 1.07906 16.2936 0.694719 14.6651 0.612551C13.2605 0.530382 11.8687 0.543635 10.4666 0.543635C9.06207 0.543635 7.67021 0.530382 6.26818 0.612551C4.63968 0.694719 3.19439 1.08171 2.00355 2.32219C0.810162 3.56532 0.441205 5.06821 0.362325 6.76459C0.283444 8.22773 0.296167 9.6776 0.296167 11.1381C0.296167 12.5986 0.283444 14.0511 0.362325 15.5116C0.441205 17.208 0.812706 18.7135 2.00355 19.954C3.19693 21.1971 4.63968 21.5814 6.26818 21.6636C7.67276 21.7458 9.06461 21.7325 10.4666 21.7325C11.8712 21.7325 13.2631 21.7458 14.6651 21.6636C16.2936 21.5814 17.7389 21.1945 18.9298 19.954C20.1231 18.7108 20.4921 17.208 20.571 15.5116C20.6524 14.0511 20.6371 12.6012 20.6371 11.1381ZM10.4641 16.5745C7.57606 16.5745 5.24528 14.1465 5.24528 11.1381C5.24528 8.12965 7.57606 5.7017 10.4641 5.7017C13.3521 5.7017 15.6829 8.12965 15.6829 11.1381C15.6829 14.1465 13.3521 16.5745 10.4641 16.5745ZM15.8967 6.74869C15.2224 6.74869 14.6778 6.18146 14.6778 5.47905C14.6778 4.77664 15.2224 4.20942 15.8967 4.20942C16.571 4.20942 17.1155 4.77664 17.1155 5.47905C17.1157 5.64584 17.0843 5.81104 17.0231 5.96517C16.962 6.1193 16.8722 6.25935 16.759 6.37729C16.6457 6.49523 16.5113 6.58874 16.3633 6.65247C16.2154 6.7162 16.0568 6.7489 15.8967 6.74869Z" fill="white"/>
</svg>
